<mxfile host="app.diagrams.net" modified="2022-07-28T06:48:51.289Z" agent="5.0 (Windows NT 10.0; Win64; x64) AppleWebKit/537.36 (KHTML, like Gecko) Chrome/103.0.0.0 Safari/537.36" etag="zuN-Rs7uDJCtAlUryXcr" version="20.2.2" type="github">
  <diagram id="OPivA8rqTuxoUIIWFikS" name="第 1 页">
    <mxGraphModel dx="1422" dy="762" grid="1" gridSize="10" guides="1" tooltips="1" connect="1" arrows="1" fold="1" page="1" pageScale="1" pageWidth="827" pageHeight="1169" math="0" shadow="0">
      <root>
        <mxCell id="0" />
        <mxCell id="1" parent="0" />
        <mxCell id="9nHXPhtl5mGIcZkhiIaI-2" style="edgeStyle=orthogonalEdgeStyle;rounded=0;orthogonalLoop=1;jettySize=auto;html=1;" edge="1" parent="1" source="9nHXPhtl5mGIcZkhiIaI-1">
          <mxGeometry relative="1" as="geometry">
            <mxPoint x="340" y="160" as="targetPoint" />
            <Array as="points">
              <mxPoint x="340" y="140" />
              <mxPoint x="340" y="140" />
            </Array>
          </mxGeometry>
        </mxCell>
        <mxCell id="9nHXPhtl5mGIcZkhiIaI-4" value="" style="edgeStyle=orthogonalEdgeStyle;rounded=0;orthogonalLoop=1;jettySize=auto;html=1;" edge="1" parent="1" source="9nHXPhtl5mGIcZkhiIaI-1" target="9nHXPhtl5mGIcZkhiIaI-3">
          <mxGeometry relative="1" as="geometry" />
        </mxCell>
        <mxCell id="9nHXPhtl5mGIcZkhiIaI-1" value="" style="rounded=0;whiteSpace=wrap;html=1;" vertex="1" parent="1">
          <mxGeometry x="280" y="50" width="140" height="60" as="geometry" />
        </mxCell>
        <mxCell id="9nHXPhtl5mGIcZkhiIaI-5" style="edgeStyle=orthogonalEdgeStyle;rounded=0;orthogonalLoop=1;jettySize=auto;html=1;exitX=0.25;exitY=1;exitDx=0;exitDy=0;" edge="1" parent="1" source="9nHXPhtl5mGIcZkhiIaI-3">
          <mxGeometry relative="1" as="geometry">
            <mxPoint x="540" y="160" as="targetPoint" />
          </mxGeometry>
        </mxCell>
        <mxCell id="9nHXPhtl5mGIcZkhiIaI-7" value="" style="edgeStyle=orthogonalEdgeStyle;rounded=0;orthogonalLoop=1;jettySize=auto;html=1;" edge="1" parent="1" source="9nHXPhtl5mGIcZkhiIaI-3" target="9nHXPhtl5mGIcZkhiIaI-6">
          <mxGeometry relative="1" as="geometry" />
        </mxCell>
        <mxCell id="9nHXPhtl5mGIcZkhiIaI-3" value="" style="whiteSpace=wrap;html=1;rounded=0;" vertex="1" parent="1">
          <mxGeometry x="510" y="50" width="120" height="60" as="geometry" />
        </mxCell>
        <mxCell id="9nHXPhtl5mGIcZkhiIaI-9" value="" style="edgeStyle=orthogonalEdgeStyle;rounded=0;orthogonalLoop=1;jettySize=auto;html=1;" edge="1" parent="1" source="9nHXPhtl5mGIcZkhiIaI-6" target="9nHXPhtl5mGIcZkhiIaI-8">
          <mxGeometry relative="1" as="geometry" />
        </mxCell>
        <mxCell id="9nHXPhtl5mGIcZkhiIaI-13" style="edgeStyle=orthogonalEdgeStyle;rounded=0;orthogonalLoop=1;jettySize=auto;html=1;" edge="1" parent="1" source="9nHXPhtl5mGIcZkhiIaI-6">
          <mxGeometry relative="1" as="geometry">
            <mxPoint x="450" y="220" as="targetPoint" />
          </mxGeometry>
        </mxCell>
        <mxCell id="9nHXPhtl5mGIcZkhiIaI-6" value="" style="whiteSpace=wrap;html=1;rounded=0;" vertex="1" parent="1">
          <mxGeometry x="510" y="190" width="120" height="60" as="geometry" />
        </mxCell>
        <mxCell id="9nHXPhtl5mGIcZkhiIaI-11" value="" style="edgeStyle=orthogonalEdgeStyle;rounded=0;orthogonalLoop=1;jettySize=auto;html=1;" edge="1" parent="1" source="9nHXPhtl5mGIcZkhiIaI-8" target="9nHXPhtl5mGIcZkhiIaI-10">
          <mxGeometry relative="1" as="geometry" />
        </mxCell>
        <mxCell id="9nHXPhtl5mGIcZkhiIaI-12" value="" style="edgeStyle=orthogonalEdgeStyle;rounded=0;orthogonalLoop=1;jettySize=auto;html=1;" edge="1" parent="1" source="9nHXPhtl5mGIcZkhiIaI-8">
          <mxGeometry relative="1" as="geometry">
            <mxPoint x="710" y="360" as="targetPoint" />
          </mxGeometry>
        </mxCell>
        <mxCell id="9nHXPhtl5mGIcZkhiIaI-15" style="edgeStyle=orthogonalEdgeStyle;rounded=0;orthogonalLoop=1;jettySize=auto;html=1;" edge="1" parent="1" source="9nHXPhtl5mGIcZkhiIaI-8" target="9nHXPhtl5mGIcZkhiIaI-14">
          <mxGeometry relative="1" as="geometry" />
        </mxCell>
        <mxCell id="9nHXPhtl5mGIcZkhiIaI-8" value="" style="ellipse;whiteSpace=wrap;html=1;rounded=0;" vertex="1" parent="1">
          <mxGeometry x="510" y="330" width="120" height="60" as="geometry" />
        </mxCell>
        <mxCell id="9nHXPhtl5mGIcZkhiIaI-10" value="" style="ellipse;whiteSpace=wrap;html=1;rounded=0;" vertex="1" parent="1">
          <mxGeometry x="510" y="470" width="120" height="60" as="geometry" />
        </mxCell>
        <mxCell id="9nHXPhtl5mGIcZkhiIaI-14" value="" style="ellipse;whiteSpace=wrap;html=1;rounded=0;" vertex="1" parent="1">
          <mxGeometry x="354" y="330" width="120" height="60" as="geometry" />
        </mxCell>
      </root>
    </mxGraphModel>
  </diagram>
</mxfile>
